{"title":"The Boy in the Striped Pyjamas-720p MP4 AAC x264 BRRip 2008-CC","uid":7262662,"size":2077836673,"categoryP":"video","categoryS":"hd___movies","magnet":"?xt=urn:btih:ab9ed6c9a193dda3072b90d73ade1876583cf6e5&amp;dn=The+Boy+in+the+Striped+Pyjamas-720p+MP4+AAC+x264+BRRip+2008-CC&amp;tr=udp%3A%2F%2Ftracker.openbittorrent.com%3A80&amp;tr=udp%3A%2F%2Fopen.demonii.com%3A1337&amp;tr=udp%3A%2F%2Ftracker.coppersurfer.tk%3A6969&amp;tr=udp%3A%2F%2Fexodus.desync.com%3A6969","seeders":4,"leechers":1,"uploader":"Caveman44","files":-1,"time":1336774906,"description":"Source: The.Boy.in.the.Striped.Pyjamas.2008.720p.BluRay.X264-AMIABLE\n\nSubs: Arabic, Brazilian, Danish, Dutch, English, Finnish, Greek, Hebrew, Indonesian, Polish, Romanian, Servian, Spanish, Turkish and Vietnamese.\n\nSample and Screens included.\n\nGeneral\nComplete name                    : The Boy in the Striped Pyjamas-720p MP4 AAC x264 BRRip 2008-CC.mp4\nFormat                           : MPEG-4\nFormat profile                   : Base Media\nCodec ID                         : isom\nFile size                        : 1.91 GiB\nDuration                         : 1h 34mn\nOverall bit rate                 : 2 894 Kbps\nEncoded date                     : UTC 2012-05-09 12:09:59\n\nVideo\nID                               : 1\nFormat                           : AVC\nFormat/Info                      : Advanced Video Codec\nFormat profile                   : &lt;a class=&quot;__cf_email__&quot; href=&quot;/cdn-cgi/l/email-protection&quot; data-cfemail=&quot;d890b1bfb09894ebf6e9&quot;&gt;[email&amp;#160;protected]&lt;/a&gt;&lt;script cf-hash='f9e31' type=&quot;text/javascript&quot;&gt;\n/* &lt;![CDATA[ */!function(){try{var t=&quot;currentScript&quot;in document?document.currentScript:function(){for(var t=document.getElementsByTagName(&quot;script&quot;),e=t.length;e--;)if(t[e].getAttribute(&quot;cf-hash&quot;))return t[e]}();if(t&amp;&amp;t.previousSibling){var e,r,n,i,c=t.previousSibling,a=c.getAttribute(&quot;data-cfemail&quot;);if(a){for(e=&quot;&quot;,r=parseInt(a.substr(0,2),16),n=2;a.length-n;n+=2)i=parseInt(a.substr(n,2),16)^r,e+=String.fromCharCode(i);e=document.createTextNode(e),c.parentNode.replaceChild(e,c)}}}catch(u){}}();/* ]]&gt; */&lt;/script&gt;\nFormat settings, CABAC           : Yes\nFormat settings, ReFrames        : 5 frames\nCodec ID                         : avc1\nCodec ID/Info                    : Advanced Video Coding\nDuration                         : 1h 34mn\nBit rate mode                    : Variable\nBit rate                         : 2 509 Kbps\nNominal bit rate                 : 2 541 Kbps\nMaximum bit rate                 : 32.7 Mbps\nWidth                            : 1 280 pixels\nHeight                           : 688 pixels\nDisplay aspect ratio             : 1.860 16:9\nFrame rate mode                  : Variable\nFrame rate                       : 23.976 fps\nMinimum frame rate               : 18.692 fps\nMaximum frame rate               : 25.000 fps\nResolution                       : 24 bits\nColorimetry                      : 4:2:0\nScan type                        : Progressive\nBits/(Pixel*Frame)               : 0.119\nStream size                      : 1.66 GiB (87%)\nWriting library                  : x264 core 112\n\nAudio\nID                               : 2\nFormat                           : AAC\nFormat/Info                      : Advanced Audio Codec\nFormat version                   : Version 4\nFormat profile                   : LC\nFormat settings, SBR             : No\nCodec ID                         : 40\nDuration                         : 1h 34mn\nBit rate mode                    : Variable\nBit rate                         : 384 Kbps\nMaximum bit rate                 : 690 Kbps\nChannel(s)                       : 6 channels\nChannel positions                : Front: L C R, Rear: L R, LFE\nSampling rate                    : 48.0 KHz\nResolution                       : 16 bits\nStream size                      : 257 MiB (13%)\nLanguage                         : English\n\nEnjoy...","torrent":{"xt":"urn:btih:ab9ed6c9a193dda3072b90d73ade1876583cf6e5","amp;dn":"The+Boy+in+the+Striped+Pyjamas-720p+MP4+AAC+x264+BRRip+2008-CC","amp;tr":["udp%3A%2F%2Ftracker.openbittorrent.com%3A80","udp%3A%2F%2Fopen.demonii.com%3A1337","udp%3A%2F%2Ftracker.coppersurfer.tk%3A6969","udp%3A%2F%2Fexodus.desync.com%3A6969"],"infoHash":"ab9ed6c9a193dda3072b90d73ade1876583cf6e5","infoHashBuffer":{"type":"Buffer","data":[171,158,214,201,161,147,221,163,7,43,144,215,58,222,24,118,88,60,246,229]},"announce":[],"urlList":[]}}